<?xml version="1.0" encoding="UTF-8"?><svg id="_レイヤー_1" xmlns="http://www.w3.org/2000/svg" width="40mm" height="12mm" viewBox="0 0 113.38 34.02"><rect width="113.38" height="34.02" fill="#3e3a39"/><g><polyline points="7.46 2.65 11 5.2 18.09 5.2 21.63 2.65" fill="#efefef"/><polyline points="6.4 17.08 9.13 13.67 9.5 6.6 7.14 2.92" fill="#efefef"/><polygon points="17.33 16.14 10.25 16.14 6.7 17.42 10.25 18.69 17.33 18.69 20.88 17.42 17.33 16.14" fill="#efefef"/><polyline points="21.8 2.92 19.07 6.33 18.7 13.41 21.06 17.08" fill="#efefef"/><polyline points="20.02 32.01 16.47 29.46 9.39 29.46 5.84 32.01" fill="#efefef"/><polyline points="21.07 17.58 18.34 20.99 17.97 28.07 20.33 31.74" fill="#efefef"/><polyline points="5.67 31.74 8.4 28.33 8.77 21.26 6.41 17.58" fill="#efefef"/></g><circle cx="25.28" cy="30.74" r="1.42" fill="#efefef"/><g><polyline points="33.75 2.83 37.29 5.38 44.37 5.38 47.91 2.83" fill="#efefef"/><polyline points="32.69 17.26 35.42 13.86 35.79 6.78 33.43 3.11" fill="#efefef"/><polygon points="43.61 16.32 36.53 16.32 32.99 17.6 36.53 18.87 43.61 18.87 47.15 17.6 43.61 16.32" fill="#efefef"/><polyline points="48.08 3.11 45.35 6.51 44.98 13.59 47.34 17.26" fill="#efefef"/><polyline points="46.29 32.2 42.75 29.65 35.67 29.65 32.13 32.2" fill="#efefef"/><polyline points="47.35 17.77 44.62 21.17 44.25 28.25 46.61 31.92" fill="#efefef"/><polyline points="31.96 31.92 34.69 28.52 35.06 21.44 32.7 17.77" fill="#efefef"/></g><circle cx="51.56" cy="30.92" r="1.42" fill="#efefef"/><g><polyline points="65.48 2.42 69.02 4.97 76.11 4.97 79.65 2.42" fill="#efefef"/><polyline points="64.42 16.85 67.15 13.44 67.52 6.36 65.16 2.69" fill="#efefef"/><polygon points="75.35 15.91 68.26 15.91 64.72 17.18 68.26 18.46 75.35 18.46 78.89 17.18 75.35 15.91" fill="#efefef"/><polyline points="79.82 2.69 77.09 6.1 76.72 13.17 79.08 16.85" fill="#efefef"/><polyline points="78.03 31.78 74.49 29.23 67.4 29.23 63.86 31.78" fill="#efefef"/><polyline points="79.09 17.35 76.36 20.76 75.99 27.83 78.35 31.51" fill="#efefef"/><polyline points="63.69 31.51 66.42 28.1 66.79 21.02 64.43 17.35" fill="#efefef"/></g><circle cx="83.3" cy="30.51" r="1.42" fill="#efefef"/><g><polyline points="91.76 2.6 95.31 5.15 102.39 5.15 105.94 2.6" fill="#efefef"/><polyline points="90.71 17.03 93.44 13.62 93.81 6.55 91.45 2.87" fill="#efefef"/><polygon points="101.64 16.09 94.55 16.09 91.01 17.36 94.55 18.64 101.64 18.64 105.18 17.36 101.64 16.09" fill="#efefef"/><polyline points="106.11 2.87 103.38 6.28 103 13.36 105.37 17.03" fill="#efefef"/><polyline points="104.32 31.96 100.78 29.41 93.69 29.41 90.15 31.96" fill="#efefef"/><polyline points="105.38 17.53 102.65 20.94 102.27 28.02 104.64 31.69" fill="#efefef"/><polyline points="89.98 31.69 92.71 28.28 93.08 21.21 90.72 17.53" fill="#efefef"/></g><circle cx="109.59" cy="30.69" r="1.42" fill="#efefef"/><circle cx="56.68" cy="9.77" r="1.42" fill="#efefef"/><circle cx="56.68" cy="24.84" r="1.42" fill="#efefef"/><circle cx="87.23" cy="3.69" r="1.42" fill="#efefef"/><g id="connector0pin"><circle cx="31.68" cy="31.3" r=".96" fill="none"/></g><g id="connector1pin"><circle cx="38.82" cy="31.33" r=".96" fill="none"/></g><g id="connector2pin"><circle cx="45.96" cy="31.33" r=".96" fill="none"/></g><g id="connector3pin"><circle cx="53.11" cy="31.33" r=".96" fill="none"/></g><g id="connector4pin"><circle cx="60.25" cy="31.33" r=".96" fill="none"/></g><g id="connector5pin"><circle cx="67.4" cy="31.33" r=".96" fill="none"/></g><g id="connector6pin"><circle cx="74.55" cy="31.33" r=".96" fill="none"/></g><g id="connector7pin"><circle cx="81.7" cy="31.33" r=".96" fill="none"/></g><g id="connector15pin"><circle cx="31.68" cy="2.3" r=".96" fill="none"/></g><g id="connector14pin"><circle cx="38.82" cy="2.33" r=".96" fill="none"/></g><g id="connector13pin"><circle cx="45.96" cy="2.33" r=".96" fill="none"/></g><g id="connector12pin"><circle cx="53.11" cy="2.33" r=".96" fill="none"/></g><g id="connector11pin"><circle cx="60.25" cy="2.33" r=".96" fill="none"/></g><g id="connector10pin"><circle cx="67.4" cy="2.33" r=".96" fill="none"/></g><g id="connector9pin"><circle cx="74.55" cy="2.33" r=".96" fill="none"/></g><g id="connector8pin"><circle cx="81.7" cy="2.33" r=".96" fill="none"/></g></svg>