<?xml version="1.0" encoding="UTF-8"?><svg id="_レイヤー_1" xmlns="http://www.w3.org/2000/svg" width="150.5mm" height="31.94mm" viewBox="0 0 426.62 90.53"><g><line x1="116.51" y1="30.27" x2="112.91" y2="30.27" fill="none" stroke="#040000" stroke-linecap="round" stroke-width=".7"/><line x1="112.91" y1="30.27" x2="109.31" y2="30.27" fill="none" stroke="#040000" stroke-linecap="round" stroke-width=".7"/><polygon points="112.91 30.27 109.31 23.07 112.91 23.07 116.51 23.07 112.91 30.27" fill="#231815" stroke="#040000" stroke-linecap="round" stroke-width=".7"/><line id="connector1pin" x1="112.91" y1="37.47" x2="112.91" y2="30.27" fill="none" stroke="#040000" stroke-linecap="round" stroke-width=".7"/><line x1="149.13" y1="30.27" x2="145.53" y2="30.27" fill="none" stroke="#040000" stroke-linecap="round" stroke-width=".7"/><line x1="145.53" y1="30.27" x2="141.93" y2="30.27" fill="none" stroke="#040000" stroke-linecap="round" stroke-width=".7"/><polygon points="145.53 30.27 141.93 23.07 145.53 23.07 149.13 23.07 145.53 30.27" fill="#231815" stroke="#040000" stroke-linecap="round" stroke-width=".7"/><line id="connector1pin-2" x1="145.53" y1="37.47" x2="145.53" y2="30.27" fill="none" stroke="#040000" stroke-linecap="round" stroke-width=".7"/><g><line x1="138.26" y1="30.27" x2="134.66" y2="30.27" fill="none" stroke="#040000" stroke-linecap="round" stroke-width=".7"/><line x1="134.66" y1="30.27" x2="131.06" y2="30.27" fill="none" stroke="#040000" stroke-linecap="round" stroke-width=".7"/><polygon points="134.66 30.27 131.06 23.07 134.66 23.07 138.26 23.07 134.66 30.27" fill="#231815" stroke="#040000" stroke-linecap="round" stroke-width=".7"/><line id="connector1pin-3" x1="134.66" y1="37.47" x2="134.66" y2="30.27" fill="none" stroke="#040000" stroke-linecap="round" stroke-width=".7"/></g><g><line x1="127.38" y1="30.27" x2="123.78" y2="30.27" fill="none" stroke="#040000" stroke-linecap="round" stroke-width=".7"/><line x1="123.78" y1="30.27" x2="120.18" y2="30.27" fill="none" stroke="#040000" stroke-linecap="round" stroke-width=".7"/><polygon points="123.78 30.27 120.18 23.07 123.78 23.07 127.38 23.07 123.78 30.27" fill="#231815" stroke="#040000" stroke-linecap="round" stroke-width=".7"/><line id="connector1pin-4" x1="123.78" y1="37.47" x2="123.78" y2="30.27" fill="none" stroke="#040000" stroke-linecap="round" stroke-width=".7"/></g><g><line x1="73.01" y1="30.27" x2="69.41" y2="30.27" fill="none" stroke="#040000" stroke-linecap="round" stroke-width=".7"/><line x1="69.41" y1="30.27" x2="65.81" y2="30.27" fill="none" stroke="#040000" stroke-linecap="round" stroke-width=".7"/><polygon points="69.41 30.27 65.81 23.07 69.41 23.07 73.01 23.07 69.41 30.27" fill="#231815" stroke="#040000" stroke-linecap="round" stroke-width=".7"/><polyline id="connector1pin-5" points="145.53 37.47 69.41 37.47 69.41 30.27" fill="none" stroke="#040000" stroke-linecap="round" stroke-width=".7"/></g><g><line x1="105.63" y1="30.27" x2="102.03" y2="30.27" fill="none" stroke="#040000" stroke-linecap="round" stroke-width=".7"/><line x1="102.03" y1="30.27" x2="98.43" y2="30.27" fill="none" stroke="#040000" stroke-linecap="round" stroke-width=".7"/><polygon points="102.03 30.27 98.43 23.07 102.03 23.07 105.63 23.07 102.03 30.27" fill="#231815" stroke="#040000" stroke-linecap="round" stroke-width=".7"/><line id="connector1pin-6" x1="102.03" y1="37.47" x2="102.03" y2="30.27" fill="none" stroke="#040000" stroke-linecap="round" stroke-width=".7"/></g><g><line x1="94.76" y1="30.27" x2="91.16" y2="30.27" fill="none" stroke="#040000" stroke-linecap="round" stroke-width=".7"/><line x1="91.16" y1="30.27" x2="87.56" y2="30.27" fill="none" stroke="#040000" stroke-linecap="round" stroke-width=".7"/><polygon points="91.16 30.27 87.56 23.07 91.16 23.07 94.76 23.07 91.16 30.27" fill="#231815" stroke="#040000" stroke-linecap="round" stroke-width=".7"/><line id="connector1pin-7" x1="91.16" y1="37.47" x2="91.16" y2="30.27" fill="none" stroke="#040000" stroke-linecap="round" stroke-width=".7"/></g><g><line x1="83.89" y1="30.27" x2="80.29" y2="30.27" fill="none" stroke="#040000" stroke-linecap="round" stroke-width=".7"/><line x1="80.29" y1="30.27" x2="76.69" y2="30.27" fill="none" stroke="#040000" stroke-linecap="round" stroke-width=".7"/><polygon points="80.29 30.27 76.69 23.07 80.29 23.07 83.89 23.07 80.29 30.27" fill="#231815" stroke="#040000" stroke-linecap="round" stroke-width=".7"/><line id="connector1pin-8" x1="80.29" y1="37.47" x2="80.29" y2="30.27" fill="none" stroke="#040000" stroke-linecap="round" stroke-width=".7"/></g></g><line x1="134.66" y1="23.07" x2="134.66" y2="19.47" fill="none" stroke="#040000" stroke-linecap="round" stroke-width=".7"/><line x1="123.78" y1="23.07" x2="123.78" y2="19.47" fill="none" stroke="#040000" stroke-linecap="round" stroke-width=".7"/><line x1="112.91" y1="23.07" x2="112.91" y2="19.47" fill="none" stroke="#040000" stroke-linecap="round" stroke-width=".7"/><line x1="102.03" y1="23.07" x2="102.03" y2="19.47" fill="none" stroke="#040000" stroke-linecap="round" stroke-width=".7"/><line x1="91.16" y1="23.07" x2="91.16" y2="19.47" fill="none" stroke="#040000" stroke-linecap="round" stroke-width=".7"/><line x1="80.29" y1="23.07" x2="80.29" y2="19.47" fill="none" stroke="#040000" stroke-linecap="round" stroke-width=".7"/><polyline points="145.53 23.07 145.53 19.47 69.41 19.47 69.41 23.07" fill="none" stroke="#040000" stroke-linecap="round" stroke-width=".7"/><line x1="102.03" y1="18.9" x2="102.03" y2="9.5" fill="none" stroke="#040000" stroke-linecap="round" stroke-width=".7"/><line x1="15.04" y1="40.84" x2="145.53" y2="40.84" fill="none" stroke="#040000" stroke-linecap="round" stroke-width=".7"/><line x1="25.94" y1="44.22" x2="145.53" y2="44.22" fill="none" stroke="#040000" stroke-linecap="round" stroke-width=".7"/><line x1="102.03" y1="47.59" x2="145.53" y2="47.59" fill="none" stroke="#040000" stroke-linecap="round" stroke-width=".7"/><line x1="112.91" y1="50.96" x2="145.53" y2="50.96" fill="none" stroke="#040000" stroke-linecap="round" stroke-width=".7"/><line x1="123.78" y1="54.34" x2="145.53" y2="54.34" fill="none" stroke="#040000" stroke-linecap="round" stroke-width=".7"/><line x1="134.66" y1="57.71" x2="145.53" y2="57.71" fill="none" stroke="#040000" stroke-linecap="round" stroke-width=".7"/><line x1="80.29" y1="79.48" x2="80.29" y2="37.47" fill="none" stroke="#040000" stroke-linecap="round" stroke-width=".7"/><line x1="91.16" y1="79.48" x2="91.16" y2="37.47" fill="none" stroke="#040000" stroke-linecap="round" stroke-width=".7"/><line x1="102.03" y1="79.47" x2="102.03" y2="37.47" fill="none" stroke="#040000" stroke-linecap="round" stroke-width=".7"/><line x1="112.81" y1="79.47" x2="112.81" y2="37.24" fill="none" stroke="#040000" stroke-linecap="round" stroke-width=".7"/><line x1="123.78" y1="79.47" x2="123.78" y2="37.24" fill="none" stroke="#040000" stroke-linecap="round" stroke-width=".7"/><line x1="134.66" y1="79.47" x2="134.66" y2="37.47" fill="none" stroke="#040000" stroke-linecap="round" stroke-width=".7"/><line x1="145.53" y1="79.47" x2="145.53" y2="37.55" fill="none" stroke="#040000" stroke-linecap="round" stroke-width=".7"/><circle cx="69.41" cy="37.47" r=".43" fill="#231815" stroke="#040000" stroke-linecap="round" stroke-width=".7"/><circle cx="80.29" cy="40.84" r=".43" fill="#231815" stroke="#040000" stroke-linecap="round" stroke-width=".7"/><circle cx="91.16" cy="44.22" r=".43" fill="#231815" stroke="#040000" stroke-linecap="round" stroke-width=".7"/><circle cx="102.03" cy="47.59" r=".43" fill="#231815" stroke="#040000" stroke-linecap="round" stroke-width=".7"/><circle cx="112.91" cy="50.96" r=".43" fill="#231815" stroke="#040000" stroke-linecap="round" stroke-width=".7"/><circle cx="123.78" cy="54.34" r=".43" fill="#231815" stroke="#040000" stroke-linecap="round" stroke-width=".7"/><circle cx="134.66" cy="57.71" r=".43" fill="#231815" stroke="#040000" stroke-linecap="round" stroke-width=".7"/><circle cx="145.53" cy="60.98" r=".43" fill="#231815" stroke="#040000" stroke-linecap="round" stroke-width=".7"/><g><line x1="211.36" y1="30.27" x2="207.76" y2="30.27" fill="none" stroke="#040000" stroke-linecap="round" stroke-width=".7"/><line x1="207.76" y1="30.27" x2="204.16" y2="30.27" fill="none" stroke="#040000" stroke-linecap="round" stroke-width=".7"/><polygon points="207.76 30.27 204.16 23.07 207.76 23.07 211.36 23.07 207.76 30.27" fill="#231815" stroke="#040000" stroke-linecap="round" stroke-width=".7"/><line id="connector1pin-9" x1="207.76" y1="37.47" x2="207.76" y2="30.27" fill="none" stroke="#040000" stroke-linecap="round" stroke-width=".7"/><line x1="243.98" y1="30.27" x2="240.38" y2="30.27" fill="none" stroke="#040000" stroke-linecap="round" stroke-width=".7"/><line x1="240.38" y1="30.27" x2="236.78" y2="30.27" fill="none" stroke="#040000" stroke-linecap="round" stroke-width=".7"/><polygon points="240.38 30.27 236.78 23.07 240.38 23.07 243.98 23.07 240.38 30.27" fill="#231815" stroke="#040000" stroke-linecap="round" stroke-width=".7"/><line id="connector1pin-10" x1="240.38" y1="37.47" x2="240.38" y2="30.27" fill="none" stroke="#040000" stroke-linecap="round" stroke-width=".7"/><g><line x1="233.11" y1="30.27" x2="229.51" y2="30.27" fill="none" stroke="#040000" stroke-linecap="round" stroke-width=".7"/><line x1="229.51" y1="30.27" x2="225.91" y2="30.27" fill="none" stroke="#040000" stroke-linecap="round" stroke-width=".7"/><polygon points="229.51 30.27 225.91 23.07 229.51 23.07 233.11 23.07 229.51 30.27" fill="#231815" stroke="#040000" stroke-linecap="round" stroke-width=".7"/><line id="connector1pin-11" x1="229.51" y1="37.47" x2="229.51" y2="30.27" fill="none" stroke="#040000" stroke-linecap="round" stroke-width=".7"/></g><g><line x1="222.24" y1="30.27" x2="218.64" y2="30.27" fill="none" stroke="#040000" stroke-linecap="round" stroke-width=".7"/><line x1="218.64" y1="30.27" x2="215.04" y2="30.27" fill="none" stroke="#040000" stroke-linecap="round" stroke-width=".7"/><polygon points="218.64 30.27 215.04 23.07 218.64 23.07 222.24 23.07 218.64 30.27" fill="#231815" stroke="#040000" stroke-linecap="round" stroke-width=".7"/><line id="connector1pin-12" x1="218.64" y1="37.47" x2="218.64" y2="30.27" fill="none" stroke="#040000" stroke-linecap="round" stroke-width=".7"/></g><g><line x1="167.86" y1="30.27" x2="164.26" y2="30.27" fill="none" stroke="#040000" stroke-linecap="round" stroke-width=".7"/><line x1="164.26" y1="30.27" x2="160.66" y2="30.27" fill="none" stroke="#040000" stroke-linecap="round" stroke-width=".7"/><polygon points="164.26 30.27 160.66 23.07 164.26 23.07 167.86 23.07 164.26 30.27" fill="#231815" stroke="#040000" stroke-linecap="round" stroke-width=".7"/><polyline id="connector1pin-13" points="240.38 37.47 164.26 37.47 164.26 30.27" fill="none" stroke="#040000" stroke-linecap="round" stroke-width=".7"/></g><g><line x1="200.49" y1="30.27" x2="196.89" y2="30.27" fill="none" stroke="#040000" stroke-linecap="round" stroke-width=".7"/><line x1="196.89" y1="30.27" x2="193.29" y2="30.27" fill="none" stroke="#040000" stroke-linecap="round" stroke-width=".7"/><polygon points="196.89 30.27 193.29 23.07 196.89 23.07 200.49 23.07 196.89 30.27" fill="#231815" stroke="#040000" stroke-linecap="round" stroke-width=".7"/><line id="connector1pin-14" x1="196.89" y1="37.47" x2="196.89" y2="30.27" fill="none" stroke="#040000" stroke-linecap="round" stroke-width=".7"/></g><g><line x1="189.61" y1="30.27" x2="186.01" y2="30.27" fill="none" stroke="#040000" stroke-linecap="round" stroke-width=".7"/><line x1="186.01" y1="30.27" x2="182.41" y2="30.27" fill="none" stroke="#040000" stroke-linecap="round" stroke-width=".7"/><polygon points="186.01 30.27 182.41 23.07 186.01 23.07 189.61 23.07 186.01 30.27" fill="#231815" stroke="#040000" stroke-linecap="round" stroke-width=".7"/><line id="connector1pin-15" x1="186.01" y1="37.47" x2="186.01" y2="30.27" fill="none" stroke="#040000" stroke-linecap="round" stroke-width=".7"/></g><g><line x1="178.74" y1="30.27" x2="175.14" y2="30.27" fill="none" stroke="#040000" stroke-linecap="round" stroke-width=".7"/><line x1="175.14" y1="30.27" x2="171.54" y2="30.27" fill="none" stroke="#040000" stroke-linecap="round" stroke-width=".7"/><polygon points="175.14 30.27 171.54 23.07 175.14 23.07 178.74 23.07 175.14 30.27" fill="#231815" stroke="#040000" stroke-linecap="round" stroke-width=".7"/><line id="connector1pin-16" x1="175.14" y1="37.47" x2="175.14" y2="30.27" fill="none" stroke="#040000" stroke-linecap="round" stroke-width=".7"/></g></g><line x1="229.51" y1="23.07" x2="229.51" y2="19.47" fill="none" stroke="#040000" stroke-linecap="round" stroke-width=".7"/><line x1="218.64" y1="23.07" x2="218.64" y2="19.47" fill="none" stroke="#040000" stroke-linecap="round" stroke-width=".7"/><line x1="207.76" y1="23.07" x2="207.76" y2="19.47" fill="none" stroke="#040000" stroke-linecap="round" stroke-width=".7"/><line x1="196.89" y1="23.07" x2="196.89" y2="19.47" fill="none" stroke="#040000" stroke-linecap="round" stroke-width=".7"/><line x1="186.01" y1="23.07" x2="186.01" y2="19.47" fill="none" stroke="#040000" stroke-linecap="round" stroke-width=".7"/><line x1="175.14" y1="23.07" x2="175.14" y2="19.47" fill="none" stroke="#040000" stroke-linecap="round" stroke-width=".7"/><polyline points="240.38 23.07 240.38 19.47 164.26 19.47 164.26 23.07" fill="none" stroke="#040000" stroke-linecap="round" stroke-width=".7"/><line x1="196.89" y1="19.11" x2="196.89" y2="9.71" fill="none" stroke="#040000" stroke-linecap="round" stroke-width=".7"/><line x1="145.53" y1="40.84" x2="240.38" y2="40.84" fill="none" stroke="#040000" stroke-linecap="round" stroke-width=".7"/><line x1="145.53" y1="44.22" x2="240.38" y2="44.22" fill="none" stroke="#040000" stroke-linecap="round" stroke-width=".7"/><line x1="145.53" y1="47.59" x2="240.38" y2="47.59" fill="none" stroke="#040000" stroke-linecap="round" stroke-width=".7"/><line x1="145.53" y1="50.96" x2="240.38" y2="50.96" fill="none" stroke="#040000" stroke-linecap="round" stroke-width=".7"/><line x1="145.53" y1="54.34" x2="240.38" y2="54.34" fill="none" stroke="#040000" stroke-linecap="round" stroke-width=".7"/><line x1="145.53" y1="57.71" x2="240.38" y2="57.71" fill="none" stroke="#040000" stroke-linecap="round" stroke-width=".7"/><line x1="175.14" y1="40.84" x2="175.14" y2="37.47" fill="none" stroke="#040000" stroke-linecap="round" stroke-width=".7"/><line x1="186.01" y1="44.22" x2="186.01" y2="37.47" fill="none" stroke="#040000" stroke-linecap="round" stroke-width=".7"/><line x1="196.89" y1="47.59" x2="196.89" y2="37.47" fill="none" stroke="#040000" stroke-linecap="round" stroke-width=".7"/><line x1="207.66" y1="50.96" x2="207.66" y2="37.24" fill="none" stroke="#040000" stroke-linecap="round" stroke-width=".7"/><line x1="218.64" y1="54.34" x2="218.64" y2="37.24" fill="none" stroke="#040000" stroke-linecap="round" stroke-width=".7"/><line x1="229.51" y1="57.71" x2="229.51" y2="37.47" fill="none" stroke="#040000" stroke-linecap="round" stroke-width=".7"/><line x1="240.38" y1="60.98" x2="240.38" y2="37.55" fill="none" stroke="#040000" stroke-linecap="round" stroke-width=".7"/><line x1="145.53" y1="60.98" x2="240.38" y2="60.98" fill="none" stroke="#040000" stroke-linecap="round" stroke-width=".7"/><circle cx="164.26" cy="37.47" r=".43" fill="#231815" stroke="#040000" stroke-linecap="round" stroke-width=".7"/><circle cx="175.14" cy="40.84" r=".43" fill="#231815" stroke="#040000" stroke-linecap="round" stroke-width=".7"/><circle cx="186.01" cy="44.22" r=".43" fill="#231815" stroke="#040000" stroke-linecap="round" stroke-width=".7"/><circle cx="196.89" cy="47.59" r=".43" fill="#231815" stroke="#040000" stroke-linecap="round" stroke-width=".7"/><circle cx="207.76" cy="50.96" r=".43" fill="#231815" stroke="#040000" stroke-linecap="round" stroke-width=".7"/><circle cx="218.64" cy="54.34" r=".43" fill="#231815" stroke="#040000" stroke-linecap="round" stroke-width=".7"/><circle cx="229.51" cy="57.71" r=".43" fill="#231815" stroke="#040000" stroke-linecap="round" stroke-width=".7"/><circle cx="240.38" cy="60.98" r=".43" fill="#231815" stroke="#040000" stroke-linecap="round" stroke-width=".7"/><line x1="302.46" y1="30.36" x2="298.86" y2="30.36" fill="none" stroke="#040000" stroke-linecap="round" stroke-width=".7"/><line x1="298.86" y1="30.36" x2="295.26" y2="30.36" fill="none" stroke="#040000" stroke-linecap="round" stroke-width=".7"/><polygon points="298.86 30.36 295.26 23.15 298.86 23.15 302.46 23.15 298.86 30.36" fill="#231815" stroke="#040000" stroke-linecap="round" stroke-width=".7"/><line x1="298.86" y1="37.56" x2="298.86" y2="30.36" fill="none" stroke="#040000" stroke-linecap="round" stroke-width=".7"/><line x1="335.08" y1="30.36" x2="331.48" y2="30.36" fill="none" stroke="#040000" stroke-linecap="round" stroke-width=".7"/><line x1="331.48" y1="30.36" x2="327.88" y2="30.36" fill="none" stroke="#040000" stroke-linecap="round" stroke-width=".7"/><polygon points="331.48 30.36 327.88 23.15 331.48 23.15 335.08 23.15 331.48 30.36" fill="#231815" stroke="#040000" stroke-linecap="round" stroke-width=".7"/><line x1="331.48" y1="37.56" x2="331.48" y2="30.36" fill="none" stroke="#040000" stroke-linecap="round" stroke-width=".7"/><g><line x1="324.21" y1="30.36" x2="320.61" y2="30.36" fill="none" stroke="#040000" stroke-linecap="round" stroke-width=".7"/><line x1="320.61" y1="30.36" x2="317.01" y2="30.36" fill="none" stroke="#040000" stroke-linecap="round" stroke-width=".7"/><polygon points="320.61 30.36 317.01 23.15 320.61 23.15 324.21 23.15 320.61 30.36" fill="#231815" stroke="#040000" stroke-linecap="round" stroke-width=".7"/><line x1="320.61" y1="37.56" x2="320.61" y2="30.36" fill="none" stroke="#040000" stroke-linecap="round" stroke-width=".7"/></g><g><line x1="313.33" y1="30.36" x2="309.73" y2="30.36" fill="none" stroke="#040000" stroke-linecap="round" stroke-width=".7"/><line x1="309.73" y1="30.36" x2="306.13" y2="30.36" fill="none" stroke="#040000" stroke-linecap="round" stroke-width=".7"/><polygon points="309.73 30.36 306.13 23.15 309.73 23.15 313.33 23.15 309.73 30.36" fill="#231815" stroke="#040000" stroke-linecap="round" stroke-width=".7"/><line x1="309.73" y1="37.56" x2="309.73" y2="30.36" fill="none" stroke="#040000" stroke-linecap="round" stroke-width=".7"/></g><line x1="258.96" y1="30.36" x2="255.36" y2="30.36" fill="none" stroke="#040000" stroke-linecap="round" stroke-width=".7"/><line x1="255.36" y1="30.36" x2="251.76" y2="30.36" fill="none" stroke="#040000" stroke-linecap="round" stroke-width=".7"/><polygon points="255.36 30.36 251.76 23.15 255.36 23.15 258.96 23.15 255.36 30.36" fill="#231815" stroke="#040000" stroke-linecap="round" stroke-width=".7"/><polyline points="331.48 37.56 255.36 37.56 255.36 30.36" fill="none" stroke="#040000" stroke-linecap="round" stroke-width=".7"/><g><line x1="291.59" y1="30.36" x2="287.99" y2="30.36" fill="none" stroke="#040000" stroke-linecap="round" stroke-width=".7"/><line x1="287.99" y1="30.36" x2="284.39" y2="30.36" fill="none" stroke="#040000" stroke-linecap="round" stroke-width=".7"/><polygon points="287.99 30.36 284.39 23.15 287.99 23.15 291.59 23.15 287.99 30.36" fill="#231815" stroke="#040000" stroke-linecap="round" stroke-width=".7"/><line x1="287.99" y1="37.56" x2="287.99" y2="30.36" fill="none" stroke="#040000" stroke-linecap="round" stroke-width=".7"/></g><g><line x1="280.71" y1="30.36" x2="277.11" y2="30.36" fill="none" stroke="#040000" stroke-linecap="round" stroke-width=".7"/><line x1="277.11" y1="30.36" x2="273.51" y2="30.36" fill="none" stroke="#040000" stroke-linecap="round" stroke-width=".7"/><polygon points="277.11 30.36 273.51 23.15 277.11 23.15 280.71 23.15 277.11 30.36" fill="#231815" stroke="#040000" stroke-linecap="round" stroke-width=".7"/><line x1="277.11" y1="37.56" x2="277.11" y2="30.36" fill="none" stroke="#040000" stroke-linecap="round" stroke-width=".7"/></g><g><line x1="269.84" y1="30.36" x2="266.24" y2="30.36" fill="none" stroke="#040000" stroke-linecap="round" stroke-width=".7"/><line x1="266.24" y1="30.36" x2="262.64" y2="30.36" fill="none" stroke="#040000" stroke-linecap="round" stroke-width=".7"/><polygon points="266.24 30.36 262.64 23.15 266.24 23.15 269.84 23.15 266.24 30.36" fill="#231815" stroke="#040000" stroke-linecap="round" stroke-width=".7"/><line x1="266.24" y1="37.56" x2="266.24" y2="30.36" fill="none" stroke="#040000" stroke-linecap="round" stroke-width=".7"/></g><line x1="320.61" y1="23.15" x2="320.61" y2="19.55" fill="none" stroke="#040000" stroke-linecap="round" stroke-width=".7"/><line x1="309.73" y1="23.15" x2="309.73" y2="19.55" fill="none" stroke="#040000" stroke-linecap="round" stroke-width=".7"/><line x1="298.86" y1="23.15" x2="298.86" y2="19.55" fill="none" stroke="#040000" stroke-linecap="round" stroke-width=".7"/><line x1="287.99" y1="23.15" x2="287.99" y2="19.55" fill="none" stroke="#040000" stroke-linecap="round" stroke-width=".7"/><line x1="277.11" y1="23.15" x2="277.11" y2="19.55" fill="none" stroke="#040000" stroke-linecap="round" stroke-width=".7"/><line x1="266.24" y1="23.15" x2="266.24" y2="19.55" fill="none" stroke="#040000" stroke-linecap="round" stroke-width=".7"/><polyline points="331.48 23.15 331.48 19.55 255.36 19.55 255.36 23.15" fill="none" stroke="#040000" stroke-linecap="round" stroke-width=".7"/><line x1="287.99" y1="19.2" x2="287.99" y2="9.79" fill="none" stroke="#040000" stroke-linecap="round" stroke-width=".7"/><line x1="240.38" y1="40.93" x2="331.48" y2="40.93" fill="none" stroke="#040000" stroke-linecap="round" stroke-width=".7"/><line x1="240.38" y1="44.3" x2="331.48" y2="44.3" fill="none" stroke="#040000" stroke-linecap="round" stroke-width=".7"/><line x1="240.38" y1="47.68" x2="331.48" y2="47.68" fill="none" stroke="#040000" stroke-linecap="round" stroke-width=".7"/><line x1="239.96" y1="51.05" x2="331.48" y2="51.05" fill="none" stroke="#040000" stroke-linecap="round" stroke-width=".7"/><line x1="240.38" y1="54.42" x2="331.48" y2="54.42" fill="none" stroke="#040000" stroke-linecap="round" stroke-width=".7"/><line x1="240.38" y1="57.79" x2="331.48" y2="57.79" fill="none" stroke="#040000" stroke-linecap="round" stroke-width=".7"/><line x1="266.24" y1="40.93" x2="266.24" y2="37.56" fill="none" stroke="#040000" stroke-linecap="round" stroke-width=".7"/><line x1="277.11" y1="44.3" x2="277.11" y2="37.56" fill="none" stroke="#040000" stroke-linecap="round" stroke-width=".7"/><line x1="287.99" y1="47.68" x2="287.99" y2="37.56" fill="none" stroke="#040000" stroke-linecap="round" stroke-width=".7"/><line x1="298.76" y1="51.05" x2="298.76" y2="37.33" fill="none" stroke="#040000" stroke-linecap="round" stroke-width=".7"/><line x1="309.73" y1="54.42" x2="309.73" y2="37.33" fill="none" stroke="#040000" stroke-linecap="round" stroke-width=".7"/><line x1="320.61" y1="57.79" x2="320.61" y2="37.56" fill="none" stroke="#040000" stroke-linecap="round" stroke-width=".7"/><line x1="331.48" y1="61.07" x2="331.48" y2="37.63" fill="none" stroke="#040000" stroke-linecap="round" stroke-width=".7"/><line x1="240.38" y1="61.07" x2="331.48" y2="61.07" fill="none" stroke="#040000" stroke-linecap="round" stroke-width=".7"/><circle cx="255.36" cy="37.56" r=".43" fill="#231815" stroke="#040000" stroke-linecap="round" stroke-width=".7"/><circle cx="266.24" cy="40.93" r=".43" fill="#231815" stroke="#040000" stroke-linecap="round" stroke-width=".7"/><circle cx="277.11" cy="44.3" r=".43" fill="#231815" stroke="#040000" stroke-linecap="round" stroke-width=".7"/><circle cx="287.99" cy="47.68" r=".43" fill="#231815" stroke="#040000" stroke-linecap="round" stroke-width=".7"/><circle cx="298.86" cy="51.05" r=".43" fill="#231815" stroke="#040000" stroke-linecap="round" stroke-width=".7"/><circle cx="309.73" cy="54.42" r=".43" fill="#231815" stroke="#040000" stroke-linecap="round" stroke-width=".7"/><circle cx="320.61" cy="57.79" r=".43" fill="#231815" stroke="#040000" stroke-linecap="round" stroke-width=".7"/><circle cx="331.48" cy="61.07" r=".43" fill="#231815" stroke="#040000" stroke-linecap="round" stroke-width=".7"/><line x1="240.64" y1="37.47" x2="255.36" y2="37.47" fill="none" stroke="#040000" stroke-linecap="round" stroke-width=".7"/><line x1="145.53" y1="37.56" x2="164.26" y2="37.56" fill="none" stroke="#040000" stroke-linecap="round" stroke-width=".7"/><line x1="69.41" y1="79.47" x2="69.41" y2="37.05" fill="none" stroke="#040000" stroke-linecap="round" stroke-width=".7"/><line x1="393.44" y1="30.36" x2="389.84" y2="30.36" fill="none" stroke="#040000" stroke-linecap="round" stroke-width=".7"/><line x1="389.84" y1="30.36" x2="386.24" y2="30.36" fill="none" stroke="#040000" stroke-linecap="round" stroke-width=".7"/><polygon points="389.84 30.36 386.24 23.15 389.84 23.15 393.44 23.15 389.84 30.36" fill="#231815" stroke="#040000" stroke-linecap="round" stroke-width=".7"/><line x1="389.84" y1="37.56" x2="389.84" y2="30.36" fill="none" stroke="#040000" stroke-linecap="round" stroke-width=".7"/><line x1="426.06" y1="30.36" x2="422.46" y2="30.36" fill="none" stroke="#040000" stroke-linecap="round" stroke-width=".7"/><line x1="422.46" y1="30.36" x2="418.86" y2="30.36" fill="none" stroke="#040000" stroke-linecap="round" stroke-width=".7"/><polygon points="422.46 30.36 418.86 23.15 422.46 23.15 426.06 23.15 422.46 30.36" fill="#231815" stroke="#040000" stroke-linecap="round" stroke-width=".7"/><line x1="422.46" y1="37.56" x2="422.46" y2="30.36" fill="none" stroke="#040000" stroke-linecap="round" stroke-width=".7"/><g><line x1="415.18" y1="30.36" x2="411.58" y2="30.36" fill="none" stroke="#040000" stroke-linecap="round" stroke-width=".7"/><line x1="411.58" y1="30.36" x2="407.98" y2="30.36" fill="none" stroke="#040000" stroke-linecap="round" stroke-width=".7"/><polygon points="411.58 30.36 407.98 23.15 411.58 23.15 415.18 23.15 411.58 30.36" fill="#231815" stroke="#040000" stroke-linecap="round" stroke-width=".7"/><line x1="411.58" y1="37.56" x2="411.58" y2="30.36" fill="none" stroke="#040000" stroke-linecap="round" stroke-width=".7"/></g><g><line x1="404.31" y1="30.36" x2="400.71" y2="30.36" fill="none" stroke="#040000" stroke-linecap="round" stroke-width=".7"/><line x1="400.71" y1="30.36" x2="397.11" y2="30.36" fill="none" stroke="#040000" stroke-linecap="round" stroke-width=".7"/><polygon points="400.71 30.36 397.11 23.15 400.71 23.15 404.31 23.15 400.71 30.36" fill="#231815" stroke="#040000" stroke-linecap="round" stroke-width=".7"/><line x1="400.71" y1="37.56" x2="400.71" y2="30.36" fill="none" stroke="#040000" stroke-linecap="round" stroke-width=".7"/></g><line x1="349.94" y1="30.36" x2="346.34" y2="30.36" fill="none" stroke="#040000" stroke-linecap="round" stroke-width=".7"/><line x1="346.34" y1="30.36" x2="342.74" y2="30.36" fill="none" stroke="#040000" stroke-linecap="round" stroke-width=".7"/><polygon points="346.34 30.36 342.74 23.15 346.34 23.15 349.94 23.15 346.34 30.36" fill="#231815" stroke="#040000" stroke-linecap="round" stroke-width=".7"/><g><line x1="382.56" y1="30.36" x2="378.96" y2="30.36" fill="none" stroke="#040000" stroke-linecap="round" stroke-width=".7"/><line x1="378.96" y1="30.36" x2="375.36" y2="30.36" fill="none" stroke="#040000" stroke-linecap="round" stroke-width=".7"/><polygon points="378.96 30.36 375.36 23.15 378.96 23.15 382.56 23.15 378.96 30.36" fill="#231815" stroke="#040000" stroke-linecap="round" stroke-width=".7"/><line x1="378.96" y1="37.56" x2="378.96" y2="30.36" fill="none" stroke="#040000" stroke-linecap="round" stroke-width=".7"/></g><g><line x1="371.69" y1="30.36" x2="368.09" y2="30.36" fill="none" stroke="#040000" stroke-linecap="round" stroke-width=".7"/><line x1="368.09" y1="30.36" x2="364.49" y2="30.36" fill="none" stroke="#040000" stroke-linecap="round" stroke-width=".7"/><polygon points="368.09 30.36 364.49 23.15 368.09 23.15 371.69 23.15 368.09 30.36" fill="#231815" stroke="#040000" stroke-linecap="round" stroke-width=".7"/><line x1="368.09" y1="37.56" x2="368.09" y2="30.36" fill="none" stroke="#040000" stroke-linecap="round" stroke-width=".7"/></g><g><line x1="360.81" y1="30.36" x2="357.21" y2="30.36" fill="none" stroke="#040000" stroke-linecap="round" stroke-width=".7"/><line x1="357.21" y1="30.36" x2="353.61" y2="30.36" fill="none" stroke="#040000" stroke-linecap="round" stroke-width=".7"/><polygon points="357.21 30.36 353.61 23.15 357.21 23.15 360.81 23.15 357.21 30.36" fill="#231815" stroke="#040000" stroke-linecap="round" stroke-width=".7"/><line x1="357.21" y1="37.56" x2="357.21" y2="30.36" fill="none" stroke="#040000" stroke-linecap="round" stroke-width=".7"/></g><line x1="411.58" y1="23.15" x2="411.58" y2="19.55" fill="none" stroke="#040000" stroke-linecap="round" stroke-width=".7"/><line x1="400.71" y1="23.15" x2="400.71" y2="19.55" fill="none" stroke="#040000" stroke-linecap="round" stroke-width=".7"/><line x1="389.84" y1="23.15" x2="389.84" y2="19.55" fill="none" stroke="#040000" stroke-linecap="round" stroke-width=".7"/><line x1="378.96" y1="23.15" x2="378.96" y2="19.55" fill="none" stroke="#040000" stroke-linecap="round" stroke-width=".7"/><line x1="368.09" y1="23.15" x2="368.09" y2="19.55" fill="none" stroke="#040000" stroke-linecap="round" stroke-width=".7"/><line x1="357.21" y1="23.15" x2="357.21" y2="19.55" fill="none" stroke="#040000" stroke-linecap="round" stroke-width=".7"/><polyline points="422.46 23.15 422.46 19.55 346.34 19.55 346.34 23.15" fill="none" stroke="#040000" stroke-linecap="round" stroke-width=".7"/><line x1="378.96" y1="19.2" x2="378.96" y2="9.79" fill="none" stroke="#040000" stroke-linecap="round" stroke-width=".7"/><line x1="331.36" y1="40.93" x2="357.21" y2="40.93" fill="none" stroke="#040000" stroke-linecap="round" stroke-width=".7"/><line x1="331.36" y1="44.3" x2="368.09" y2="44.3" fill="none" stroke="#040000" stroke-linecap="round" stroke-width=".7"/><line x1="331.36" y1="47.68" x2="378.96" y2="47.68" fill="none" stroke="#040000" stroke-linecap="round" stroke-width=".7"/><line x1="330.93" y1="51.05" x2="389.74" y2="51.05" fill="none" stroke="#040000" stroke-linecap="round" stroke-width=".7"/><line x1="331.36" y1="54.42" x2="400.71" y2="54.42" fill="none" stroke="#040000" stroke-linecap="round" stroke-width=".7"/><line x1="331.36" y1="57.79" x2="411.58" y2="57.79" fill="none" stroke="#040000" stroke-linecap="round" stroke-width=".7"/><line x1="357.21" y1="40.93" x2="357.21" y2="37.56" fill="none" stroke="#040000" stroke-linecap="round" stroke-width=".7"/><line x1="368.09" y1="44.3" x2="368.09" y2="37.56" fill="none" stroke="#040000" stroke-linecap="round" stroke-width=".7"/><line x1="378.96" y1="47.68" x2="378.96" y2="37.56" fill="none" stroke="#040000" stroke-linecap="round" stroke-width=".7"/><line x1="389.84" y1="51.05" x2="389.84" y2="37.33" fill="none" stroke="#040000" stroke-linecap="round" stroke-width=".7"/><line x1="400.71" y1="54.42" x2="400.71" y2="37.33" fill="none" stroke="#040000" stroke-linecap="round" stroke-width=".7"/><line x1="411.58" y1="57.79" x2="411.58" y2="37.56" fill="none" stroke="#040000" stroke-linecap="round" stroke-width=".7"/><line x1="422.46" y1="61.07" x2="422.46" y2="37.63" fill="none" stroke="#040000" stroke-linecap="round" stroke-width=".7"/><line x1="331.36" y1="61.07" x2="422.46" y2="61.07" fill="none" stroke="#040000" stroke-linecap="round" stroke-width=".7"/><line x1="331.91" y1="37.56" x2="346.34" y2="37.56" fill="none" stroke="#040000" stroke-linecap="round" stroke-width=".7"/><line x1="346.34" y1="37.56" x2="346.34" y2="30.68" fill="none" stroke="#040000" stroke-linecap="round" stroke-width=".7"/><g><line x1="18.64" y1="30.27" x2="15.04" y2="30.27" fill="none" stroke="#040000" stroke-linecap="round" stroke-width=".7"/><line x1="15.04" y1="30.27" x2="11.44" y2="30.27" fill="none" stroke="#040000" stroke-linecap="round" stroke-width=".7"/><polygon points="15.04 30.27 11.44 23.07 15.04 23.07 18.64 23.07 15.04 30.27" fill="#231815" stroke="#040000" stroke-linecap="round" stroke-width=".7"/><line x1="15.04" y1="37.47" x2="15.04" y2="30.27" fill="none" stroke="#040000" stroke-linecap="round" stroke-width=".7"/></g><g><line x1="7.77" y1="30.27" x2="4.17" y2="30.27" fill="none" stroke="#040000" stroke-linecap="round" stroke-width=".7"/><line x1="4.17" y1="30.27" x2=".57" y2="30.27" fill="none" stroke="#040000" stroke-linecap="round" stroke-width=".7"/><polygon points="4.17 30.27 .57 23.07 4.17 23.07 7.77 23.07 4.17 30.27" fill="#231815" stroke="#040000" stroke-linecap="round" stroke-width=".7"/><line x1="4.17" y1="37.47" x2="4.17" y2="30.27" fill="none" stroke="#040000" stroke-linecap="round" stroke-width=".7"/></g><g><line x1="29.54" y1="30.27" x2="25.94" y2="30.27" fill="none" stroke="#040000" stroke-linecap="round" stroke-width=".7"/><line x1="25.94" y1="30.27" x2="22.34" y2="30.27" fill="none" stroke="#040000" stroke-linecap="round" stroke-width=".7"/><polygon points="25.94 30.27 22.34 23.07 25.94 23.07 29.54 23.07 25.94 30.27" fill="#231815" stroke="#040000" stroke-linecap="round" stroke-width=".7"/><line x1="25.94" y1="37.47" x2="25.94" y2="30.27" fill="none" stroke="#040000" stroke-linecap="round" stroke-width=".7"/></g><line x1="4.17" y1="37.55" x2="69.41" y2="37.55" fill="none" stroke="#040000" stroke-linecap="round" stroke-width=".7"/><line x1="15.06" y1="40.84" x2="15.06" y2="37.3" fill="none" stroke="#040000" stroke-linecap="round" stroke-width=".7"/><line x1="25.94" y1="44.22" x2="25.94" y2="37.62" fill="none" stroke="#040000" stroke-linecap="round" stroke-width=".7"/><line x1="15.04" y1="23" x2="15.04" y2="19.4" fill="none" stroke="#040000" stroke-linecap="round" stroke-width=".7"/><polyline points="26.37 22.5 26.37 18.9 3.74 18.9 3.74 22.5" fill="none" stroke="#040000" stroke-linecap="round" stroke-width=".7"/><line x1="15.06" y1="19.7" x2="15.06" y2="10.29" fill="none" stroke="#040000" stroke-linecap="round" stroke-width=".7"/><circle cx="4.17" cy="37.55" r=".43" fill="#231815" stroke="#040000" stroke-linecap="round" stroke-width=".7"/><circle cx="15.06" cy="40.92" r=".43" fill="#231815" stroke="#040000" stroke-linecap="round" stroke-width=".7"/><circle cx="25.94" cy="44.22" r=".43" fill="#231815" stroke="#040000" stroke-linecap="round" stroke-width=".7"/><g id="schematic"><g id="connector0pin"><circle cx="102.03" cy="9.22" r=".43" fill="#b5b5b6" stroke="#b5b5b6" stroke-linecap="round" stroke-width=".7"/><text transform="translate(98.86 2.57)" fill="#231815" font-family="DroidSans, &apos;Droid Sans&apos;" font-size="3"><tspan x="0" y="0" xml:space="preserve">   1</tspan><tspan x="0" y="5.25">COM</tspan></text><text transform="translate(193.82 3.08)" fill="#231815" font-family="DroidSans, &apos;Droid Sans&apos;" font-size="3"><tspan x="0" y="0" xml:space="preserve">   2</tspan><tspan x="0" y="5.25">COM</tspan></text><text transform="translate(284.79 3.08)" fill="#231815" font-family="DroidSans, &apos;Droid Sans&apos;" font-size="3"><tspan x="0" y="0" xml:space="preserve">   6</tspan><tspan x="0" y="5.25">COM</tspan></text><text transform="translate(376.01 3.11)" fill="#231815" font-family="DroidSans, &apos;Droid Sans&apos;" font-size="3"><tspan x="0" y="0" xml:space="preserve">   8</tspan><tspan x="0" y="5.25">COM</tspan></text><text transform="translate(12.11 3.08)" fill="#231815" font-family="DroidSans, &apos;Droid Sans&apos;" font-size="3"><tspan x="0" y="0" xml:space="preserve">   4</tspan><tspan x="0" y="5.25">COM</tspan></text><text transform="translate(67.61 84.56)" fill="#231815" font-family="DroidSans, &apos;Droid Sans&apos;" font-size="3"><tspan x="0" y="0" xml:space="preserve"> A</tspan><tspan x="0" y="5.25">14</tspan></text><text transform="translate(78.49 84.56)" fill="#231815" font-family="DroidSans, &apos;Droid Sans&apos;" font-size="3"><tspan x="0" y="0" xml:space="preserve"> B</tspan><tspan x="0" y="5.25">16</tspan></text><text transform="translate(89.36 84.56)" fill="#231815" font-family="DroidSans, &apos;Droid Sans&apos;" font-size="3"><tspan x="0" y="0" xml:space="preserve"> C</tspan><tspan x="0" y="5.25">13</tspan></text><text transform="translate(100.23 84.56)" fill="#231815" font-family="DroidSans, &apos;Droid Sans&apos;" font-size="3"><tspan x="0" y="0" xml:space="preserve"> D</tspan><tspan x="0" y="5.25" xml:space="preserve"> 3</tspan></text><text transform="translate(111.11 84.56)" fill="#231815" font-family="DroidSans, &apos;Droid Sans&apos;" font-size="3"><tspan x="0" y="0" xml:space="preserve"> E</tspan><tspan x="0" y="5.25" xml:space="preserve"> 5</tspan></text><text transform="translate(121.98 84.56)" fill="#231815" font-family="DroidSans, &apos;Droid Sans&apos;" font-size="3"><tspan x="0" y="0" xml:space="preserve"> F</tspan><tspan x="0" y="5.25">11</tspan></text><text transform="translate(132.86 84.56)" fill="#231815" font-family="DroidSans, &apos;Droid Sans&apos;" font-size="3"><tspan x="0" y="0" xml:space="preserve"> G</tspan><tspan x="0" y="5.25">15</tspan></text><text transform="translate(143.73 84.56)" fill="#231815" font-family="DroidSans, &apos;Droid Sans&apos;" font-size="3"><tspan x="0" y="0" xml:space="preserve"> DP</tspan><tspan x="0" y="5.25" xml:space="preserve">  7</tspan></text></g><g id="connector1pin-17"><circle cx="196.89" cy="9.71" r=".43" fill="#b5b5b6" stroke="#b5b5b6" stroke-linecap="round" stroke-width=".7"/></g><g id="connector2pin"><circle cx="102.03" cy="79.48" r=".43" fill="#b5b5b6" stroke="#b5b5b6" stroke-linecap="round" stroke-width=".7"/></g><g id="connector3pin"><circle cx="15.06" cy="10.29" r=".43" fill="#b5b5b6" stroke="#b5b5b6" stroke-linecap="round" stroke-width=".7"/></g><g id="connector4pin"><circle cx="112.81" cy="79.47" r=".43" fill="#b5b5b6" stroke="#b5b5b6" stroke-linecap="round" stroke-width=".7"/></g><g id="connector5pin"><circle cx="287.99" cy="9.79" r=".43" fill="#b5b5b6" stroke="#b5b5b6" stroke-linecap="round" stroke-width=".7"/></g><g id="connector6pin"><circle cx="145.53" cy="79.47" r=".43" fill="#b5b5b6" stroke="#b5b5b6" stroke-linecap="round" stroke-width=".7"/></g><g id="connector7pin"><circle cx="378.96" cy="9.79" r=".43" fill="#b5b5b6" stroke="#b5b5b6" stroke-linecap="round" stroke-width=".7"/></g><g id="connector10pin"><circle cx="123.78" cy="79.47" r=".43" fill="#b5b5b6" stroke="#b5b5b6" stroke-linecap="round" stroke-width=".7"/></g><g id="connector12pin"><circle cx="91.16" cy="79.48" r=".43" fill="#b5b5b6" stroke="#b5b5b6" stroke-linecap="round" stroke-width=".7"/></g><g id="connector13pin"><circle cx="69.41" cy="79.47" r=".43" fill="#b5b5b6" stroke="#b5b5b6" stroke-linecap="round" stroke-width=".7"/></g><g id="connector14pin"><circle cx="134.66" cy="79.47" r=".43" fill="#b5b5b6" stroke="#b5b5b6" stroke-linecap="round" stroke-width=".7"/></g><g id="connector15pin"><circle cx="80.29" cy="79.47" r=".43" fill="#b5b5b6" stroke="#b5b5b6" stroke-linecap="round" stroke-width=".7"/></g></g></svg>